<svg width="203" height="69" viewBox="0 0 203 69" fill="none" xmlns="http://www.w3.org/2000/svg">
<circle cx="16" cy="53" r="15.5" fill="#D9D9D9" stroke="#D9D9D9"/>
<circle cx="73" cy="53" r="15.5" fill="#D9D9D9" stroke="#D9D9D9"/>
<circle cx="130" cy="53" r="15.5" fill="#D9D9D9" stroke="#D9D9D9"/>
<circle cx="187" cy="53" r="15.5" fill="#D9D9D9" stroke="#D9D9D9"/>
<path d="M7.536 7.848V9.032H2.688V12.792H6.624V13.976H2.688V19H1.232V7.848H7.536ZM13.1185 19.144C12.2972 19.144 11.5505 18.9573 10.8785 18.584C10.2172 18.2107 9.6945 17.6827 9.3105 17C8.93717 16.3067 8.7505 15.5067 8.7505 14.6C8.7505 13.704 8.9425 12.9147 9.3265 12.232C9.72117 11.5387 10.2545 11.0107 10.9265 10.648C11.5985 10.2747 12.3505 10.088 13.1825 10.088C14.0145 10.088 14.7665 10.2747 15.4385 10.648C16.1105 11.0107 16.6385 11.5333 17.0225 12.216C17.4172 12.8987 17.6145 13.6933 17.6145 14.6C17.6145 15.5067 17.4118 16.3067 17.0065 17C16.6118 17.6827 16.0732 18.2107 15.3905 18.584C14.7078 18.9573 13.9505 19.144 13.1185 19.144ZM13.1185 17.864C13.6412 17.864 14.1318 17.7413 14.5905 17.496C15.0492 17.2507 15.4172 16.8827 15.6945 16.392C15.9825 15.9013 16.1265 15.304 16.1265 14.6C16.1265 13.896 15.9878 13.2987 15.7105 12.808C15.4332 12.3173 15.0705 11.9547 14.6225 11.72C14.1745 11.4747 13.6892 11.352 13.1665 11.352C12.6332 11.352 12.1425 11.4747 11.6945 11.72C11.2572 11.9547 10.9052 12.3173 10.6385 12.808C10.3718 13.2987 10.2385 13.896 10.2385 14.6C10.2385 15.3147 10.3665 15.9173 10.6225 16.408C10.8892 16.8987 11.2412 17.2667 11.6785 17.512C12.1158 17.7467 12.5958 17.864 13.1185 17.864ZM20.9849 7.16V19H19.5289V7.16H20.9849ZM24.9224 7.16V19H23.4664V7.16H24.9224ZM31.2279 19.144C30.4065 19.144 29.6599 18.9573 28.9879 18.584C28.3265 18.2107 27.8039 17.6827 27.4199 17C27.0465 16.3067 26.8599 15.5067 26.8599 14.6C26.8599 13.704 27.0519 12.9147 27.4359 12.232C27.8305 11.5387 28.3639 11.0107 29.0359 10.648C29.7079 10.2747 30.4599 10.088 31.2919 10.088C32.1239 10.088 32.8759 10.2747 33.5479 10.648C34.2199 11.0107 34.7479 11.5333 35.1319 12.216C35.5265 12.8987 35.7239 13.6933 35.7239 14.6C35.7239 15.5067 35.5212 16.3067 35.1159 17C34.7212 17.6827 34.1825 18.2107 33.4999 18.584C32.8172 18.9573 32.0599 19.144 31.2279 19.144ZM31.2279 17.864C31.7505 17.864 32.2412 17.7413 32.6999 17.496C33.1585 17.2507 33.5265 16.8827 33.8039 16.392C34.0919 15.9013 34.2359 15.304 34.2359 14.6C34.2359 13.896 34.0972 13.2987 33.8199 12.808C33.5425 12.3173 33.1799 11.9547 32.7319 11.72C32.2839 11.4747 31.7985 11.352 31.2759 11.352C30.7425 11.352 30.2519 11.4747 29.8039 11.72C29.3665 11.9547 29.0145 12.3173 28.7479 12.808C28.4812 13.2987 28.3479 13.896 28.3479 14.6C28.3479 15.3147 28.4759 15.9173 28.7319 16.408C28.9985 16.8987 29.3505 17.2667 29.7879 17.512C30.2252 17.7467 30.7052 17.864 31.2279 17.864ZM49.3183 10.232L46.5823 19H45.0783L42.9663 12.04L40.8543 19H39.3503L36.5983 10.232H38.0863L40.1023 17.592L42.2783 10.232H43.7663L45.8943 17.608L47.8783 10.232H49.3183ZM62.8049 10.232V19H61.3489V17.704C61.0715 18.152 60.6822 18.504 60.1809 18.76C59.6902 19.0053 59.1462 19.128 58.5489 19.128C57.8662 19.128 57.2529 18.9893 56.7089 18.712C56.1649 18.424 55.7329 17.9973 55.4129 17.432C55.1035 16.8667 54.9489 16.1787 54.9489 15.368V10.232H56.3889V15.176C56.3889 16.04 56.6075 16.7067 57.0449 17.176C57.4822 17.6347 58.0795 17.864 58.8369 17.864C59.6155 17.864 60.2289 17.624 60.6769 17.144C61.1249 16.664 61.3489 15.9653 61.3489 15.048V10.232H62.8049ZM68.3673 19.144C67.6953 19.144 67.0926 19.032 66.5593 18.808C66.0259 18.5733 65.6046 18.2533 65.2953 17.848C64.9859 17.432 64.8153 16.9573 64.7833 16.424H66.2873C66.3299 16.8613 66.5326 17.2187 66.8953 17.496C67.2686 17.7733 67.7539 17.912 68.3513 17.912C68.9059 17.912 69.3433 17.7893 69.6633 17.544C69.9833 17.2987 70.1433 16.9893 70.1433 16.616C70.1433 16.232 69.9726 15.9493 69.6313 15.768C69.2899 15.576 68.7619 15.3893 68.0473 15.208C67.3966 15.0373 66.8633 14.8667 66.4473 14.696C66.0419 14.5147 65.6899 14.2533 65.3913 13.912C65.1033 13.56 64.9593 13.1013 64.9593 12.536C64.9593 12.088 65.0926 11.6773 65.3593 11.304C65.6259 10.9307 66.0046 10.6373 66.4953 10.424C66.9859 10.2 67.5459 10.088 68.1753 10.088C69.1459 10.088 69.9299 10.3333 70.5273 10.824C71.1246 11.3147 71.4446 11.9867 71.4873 12.84H70.0313C69.9993 12.3813 69.8126 12.0133 69.4713 11.736C69.1406 11.4587 68.6926 11.32 68.1273 11.32C67.6046 11.32 67.1886 11.432 66.8793 11.656C66.5699 11.88 66.4153 12.1733 66.4153 12.536C66.4153 12.824 66.5059 13.064 66.6873 13.256C66.8793 13.4373 67.1139 13.5867 67.3913 13.704C67.6793 13.8107 68.0739 13.9333 68.5753 14.072C69.2046 14.2427 69.7166 14.4133 70.1113 14.584C70.5059 14.744 70.8419 14.9893 71.1193 15.32C71.4073 15.6507 71.5566 16.0827 71.5673 16.616C71.5673 17.096 71.4339 17.528 71.1673 17.912C70.9006 18.296 70.5219 18.6 70.0313 18.824C69.5513 19.0373 68.9966 19.144 68.3673 19.144ZM82.9443 19.112C81.9096 19.112 80.9656 18.872 80.1123 18.392C79.2589 17.9013 78.5816 17.224 78.0803 16.36C77.5896 15.4853 77.3443 14.504 77.3443 13.416C77.3443 12.328 77.5896 11.352 78.0803 10.488C78.5816 9.61333 79.2589 8.936 80.1123 8.456C80.9656 7.96533 81.9096 7.72 82.9443 7.72C83.9896 7.72 84.9389 7.96533 85.7923 8.456C86.6456 8.936 87.3176 9.608 87.8083 10.472C88.2989 11.336 88.5443 12.3173 88.5443 13.416C88.5443 14.5147 88.2989 15.496 87.8083 16.36C87.3176 17.224 86.6456 17.9013 85.7923 18.392C84.9389 18.872 83.9896 19.112 82.9443 19.112ZM82.9443 17.848C83.7229 17.848 84.4216 17.6667 85.0403 17.304C85.6696 16.9413 86.1603 16.424 86.5123 15.752C86.8749 15.08 87.0563 14.3013 87.0563 13.416C87.0563 12.52 86.8749 11.7413 86.5123 11.08C86.1603 10.408 85.6749 9.89067 85.0563 9.528C84.4376 9.16533 83.7336 8.984 82.9443 8.984C82.1549 8.984 81.4509 9.16533 80.8323 9.528C80.2136 9.89067 79.7229 10.408 79.3603 11.08C79.0083 11.7413 78.8323 12.52 78.8323 13.416C78.8323 14.3013 79.0083 15.08 79.3603 15.752C79.7229 16.424 80.2136 16.9413 80.8323 17.304C81.4616 17.6667 82.1656 17.848 82.9443 17.848ZM94.7384 10.072C95.805 10.072 96.669 10.3973 97.3304 11.048C97.9917 11.688 98.3224 12.616 98.3224 13.832V19H96.8824V14.04C96.8824 13.1653 96.6637 12.4987 96.2264 12.04C95.789 11.5707 95.1917 11.336 94.4344 11.336C93.6664 11.336 93.053 11.576 92.5944 12.056C92.1464 12.536 91.9224 13.2347 91.9224 14.152V19H90.4664V10.232H91.9224V11.48C92.2104 11.032 92.5997 10.6853 93.0904 10.44C93.5917 10.1947 94.141 10.072 94.7384 10.072Z" fill="#333333"/>
</svg>
