<svg width="195" height="24" viewBox="0 0 195 24" fill="none" xmlns="http://www.w3.org/2000/svg">
<path fill-rule="evenodd" clip-rule="evenodd" d="M69 3C66.5556 3 66.2496 3.0102 65.2896 3.054C64.3314 3.0978 63.6768 3.2502 63.1044 3.4728C62.5044 3.6984 61.9602 4.0524 61.5102 4.5108C61.0525 4.96028 60.6983 5.5041 60.4722 6.1044C60.2508 6.6768 60.0978 7.332 60.054 8.2902C60.0108 9.2496 60 9.555 60 12C60 14.445 60.0102 14.7504 60.054 15.7104C60.0978 16.6686 60.2502 17.3232 60.4728 17.8956C60.6984 18.4956 61.0524 19.0398 61.5108 19.4898C61.9603 19.9475 62.5041 20.3017 63.1044 20.5278C63.6768 20.7498 64.3314 20.9022 65.2896 20.946C66.2496 20.9898 66.5556 21 69 21C71.4444 21 71.7504 20.9898 72.7104 20.946C73.6686 20.9022 74.3232 20.7498 74.8956 20.5272C75.4956 20.3016 76.0398 19.9476 76.4898 19.4892C76.9475 19.0397 77.3017 18.4959 77.5278 17.8956C77.7498 17.3232 77.9022 16.6686 77.946 15.7104C77.9898 14.7504 78 14.4444 78 12C78 9.5556 77.9898 9.2496 77.946 8.2896C77.9022 7.3314 77.7498 6.6768 77.5272 6.1044C77.3012 5.50384 76.947 4.95979 76.4892 4.5102C76.0397 4.05253 75.4959 3.69831 74.8956 3.4722C74.3232 3.2508 73.668 3.0978 72.7098 3.054C71.7504 3.0108 71.445 3 69 3ZM69 4.6218C71.403 4.6218 71.688 4.6308 72.6372 4.674C73.5144 4.7142 73.9908 4.86 74.3082 4.9842C74.7282 5.1468 75.0282 5.3424 75.3432 5.6568C75.6582 5.9718 75.8532 6.2718 76.0158 6.6918C76.1394 7.0092 76.2858 7.4856 76.326 8.3628C76.3692 9.312 76.3782 9.597 76.3782 12C76.3782 14.403 76.3692 14.688 76.326 15.6372C76.2858 16.5144 76.14 16.9908 76.0158 17.3082C75.8718 17.6991 75.6419 18.0528 75.3432 18.3432C75.0528 18.642 74.6992 18.8718 74.3082 19.0158C73.9908 19.1394 73.5144 19.2858 72.6372 19.326C71.688 19.3692 71.4036 19.3782 69 19.3782C66.5964 19.3782 66.312 19.3692 65.3628 19.326C64.4856 19.2858 64.0092 19.14 63.6918 19.0158C63.3009 18.8718 62.9472 18.6419 62.6568 18.3432C62.3581 18.0528 62.1283 17.6991 61.9842 17.3082C61.8606 16.9908 61.7142 16.5144 61.674 15.6372C61.6308 14.688 61.6218 14.403 61.6218 12C61.6218 9.597 61.6308 9.312 61.674 8.3628C61.7142 7.4856 61.86 7.0092 61.9842 6.6918C62.1468 6.2718 62.3424 5.9718 62.6568 5.6568C62.9472 5.35803 63.3008 5.12819 63.6918 4.9842C64.0092 4.8606 64.4856 4.7142 65.3628 4.674C66.312 4.6308 66.597 4.6218 69 4.6218Z" fill="black"/>
<path fill-rule="evenodd" clip-rule="evenodd" d="M69 15.003C68.6057 15.003 68.2152 14.9254 67.8508 14.7744C67.4865 14.6235 67.1554 14.4023 66.8766 14.1235C66.5977 13.8446 66.3765 13.5136 66.2256 13.1492C66.0747 12.7849 65.997 12.3944 65.997 12C65.997 11.6057 66.0747 11.2152 66.2256 10.8508C66.3765 10.4865 66.5977 10.1554 66.8766 9.87659C67.1554 9.59774 67.4865 9.37654 67.8508 9.22562C68.2152 9.07471 68.6057 8.99703 69 8.99703C69.7965 8.99703 70.5603 9.31342 71.1235 9.87659C71.6866 10.4398 72.003 11.2036 72.003 12C72.003 12.7965 71.6866 13.5603 71.1235 14.1235C70.5603 14.6866 69.7965 15.003 69 15.003ZM69 7.37403C67.7731 7.37403 66.5965 7.86141 65.7289 8.72896C64.8614 9.5965 64.374 10.7731 64.374 12C64.374 13.2269 64.8614 14.4036 65.7289 15.2711C66.5965 16.1387 67.7731 16.626 69 16.626C70.2269 16.626 71.4036 16.1387 72.2711 15.2711C73.1386 14.4036 73.626 13.2269 73.626 12C73.626 10.7731 73.1386 9.5965 72.2711 8.72896C71.4036 7.86141 70.2269 7.37403 69 7.37403ZM74.9718 7.29003C74.9718 7.58005 74.8566 7.85818 74.6515 8.06325C74.4465 8.26833 74.1683 8.38353 73.8783 8.38353C73.5883 8.38353 73.3102 8.26833 73.1051 8.06325C72.9 7.85818 72.7848 7.58005 72.7848 7.29003C72.7848 7.00002 72.9 6.72188 73.1051 6.51681C73.3102 6.31174 73.5883 6.19653 73.8783 6.19653C74.1683 6.19653 74.4465 6.31174 74.6515 6.51681C74.8566 6.72188 74.9718 7.00002 74.9718 7.29003Z" fill="black"/>
<path d="M22 12.0607C22 6.504 17.5233 2 12 2C6.47667 2 2 6.504 2 12.0607C2 17.0833 5.656 21.2453 10.4373 22V14.9693H7.89867V12.06H10.4373V9.844C10.4373 7.32267 11.93 5.92933 14.2147 5.92933C15.308 5.92933 16.4533 6.126 16.4533 6.126V8.602H15.1913C13.9493 8.602 13.5627 9.378 13.5627 10.174V12.0607H16.336L15.8927 14.9687H13.5627V22C18.344 21.2453 22 17.0833 22 12.0607Z" fill="black"/>
<path d="M132.115 6.00894C131.038 5.30651 130.261 4.18262 130.018 2.87246C129.966 2.5894 129.937 2.29807 129.937 2H126.498L126.493 15.78C126.435 17.3231 125.165 18.5616 123.608 18.5616C123.124 18.5616 122.668 18.4406 122.267 18.2295C121.347 17.7454 120.718 16.781 120.718 15.6713C120.718 14.0775 122.014 12.7808 123.608 12.7808C123.906 12.7808 124.191 12.8299 124.461 12.9145V9.40424C124.181 9.3662 123.898 9.34242 123.608 9.34242C120.118 9.34242 117.279 12.1816 117.279 15.6713C117.279 17.8124 118.349 19.7072 119.981 20.853C121.009 21.5747 122.259 22 123.608 22C127.098 22 129.937 19.161 129.937 15.6713V8.68367C131.285 9.65161 132.938 10.222 134.72 10.222V6.7836C133.76 6.7836 132.866 6.49808 132.115 6.00894Z" fill="black"/>
<path fill-rule="evenodd" clip-rule="evenodd" d="M190.792 5.41483C191.652 5.64589 192.332 6.32626 192.564 7.18633C192.987 8.75244 193 12.0002 193 12.0002C193 12.0002 193 15.2608 192.576 16.8141C192.345 17.6741 191.665 18.3545 190.805 18.5856C189.252 19.0092 183 19.0092 183 19.0092C183 19.0092 176.748 19.0092 175.195 18.5856C174.335 18.3545 173.655 17.6741 173.424 16.8141C173 15.248 173 12.0002 173 12.0002C173 12.0002 173 8.75244 173.411 7.19917C173.642 6.33909 174.322 5.65873 175.182 5.42767C176.736 5.00404 182.987 4.99121 182.987 4.99121C182.987 4.99121 189.239 4.99121 190.792 5.41483ZM186.184 12.0002L180.997 15.004V8.99635L186.184 12.0002Z" fill="black"/>
</svg>
